<svg preserveAspectRatio="xMidYMid meet" width="50.2879" height="50.2883" overflow="visible" style="display: block;" viewBox="0 0 50.2879 50.2883" fill="none" xmlns="http://www.w3.org/2000/svg">
<g id="Group 17">
<g id="Group 16">
<g id="Group 3">
<path id="Fill 1" fill-rule="evenodd" clip-rule="evenodd" d="M25.1442 0C11.2573 0 0 11.2573 0 25.1442C0 39.031 11.2573 50.2883 25.1442 50.2883C39.0308 50.2883 50.2879 39.031 50.2879 25.1442C50.2879 11.2573 39.0308 0 25.1442 0" fill="var(--fill-0, #DB0007)"/>
</g>
<path id="Fill 4" fill-rule="evenodd" clip-rule="evenodd" d="M30.6641 12.0011C32.8341 12.0011 34.5929 21.1473 34.5929 32.4294H37.7359C37.7359 20.279 34.5693 10.4296 30.6641 10.4296C28.4431 10.4296 26.4603 13.3905 25.1643 18.0187C23.869 13.3905 21.8863 10.4296 19.664 10.4296C15.7588 10.4296 12.592 20.279 12.592 32.4294H15.7365C15.7365 21.1473 17.4953 12.0011 19.664 12.0011C21.8338 12.0011 23.5927 20.444 23.5927 30.8579H26.7351C26.7351 20.444 28.4954 12.0011 30.6641 12.0011" fill="var(--fill-0, #FFBC0D)"/>
<path id="Fill 6" fill-rule="evenodd" clip-rule="evenodd" d="M38.126 36.9053C38.126 37.9674 37.2657 38.8292 36.2021 38.8292C35.1402 38.8292 34.2797 37.9674 34.2797 36.9053C34.2797 35.8432 35.1402 34.9815 36.2021 34.9815C37.2657 34.9815 38.126 35.8432 38.126 36.9053" fill="var(--fill-0, white)"/>
<path id="Fill 8" fill-rule="evenodd" clip-rule="evenodd" d="M14.2146 34.982C13.1525 34.982 12.2908 35.8438 12.2908 36.9058C12.2908 37.9679 13.1525 38.8283 14.2146 38.8283C15.2767 38.8283 16.1385 37.9679 16.1385 36.9058C16.1385 35.8438 15.2767 34.982 14.2146 34.982M14.2143 35.8386V35.8386C14.8023 35.8386 15.2817 36.3165 15.2817 36.9058C15.2817 37.4939 14.8023 37.9717 14.2143 37.9717C13.6263 37.9717 13.1469 37.4939 13.1469 36.9058C13.1469 36.6203 13.2583 36.3519 13.46 36.1501C13.6616 35.9486 13.9288 35.8386 14.2143 35.8386" fill="var(--fill-0, white)"/>
<path id="Fill 10" fill-rule="evenodd" clip-rule="evenodd" d="M26.2271 39.0884C26.2271 39.6751 25.7522 40.1518 25.1642 40.1518C24.5775 40.1518 24.1021 39.6751 24.1021 39.0884C24.1021 38.5017 24.5775 38.025 25.1642 38.025C25.7522 38.025 26.2271 38.5017 26.2271 39.0884" fill="var(--fill-0, white)"/>
<path id="Fill 12" fill-rule="evenodd" clip-rule="evenodd" d="M21.1427 38.7456C21.1427 39.3323 20.6672 39.809 20.0793 39.809C19.4926 39.809 19.0172 39.3323 19.0172 38.7456C19.0172 38.1589 19.4926 37.6822 20.0793 37.6822C20.6672 37.6822 21.1427 38.1589 21.1427 38.7456" fill="var(--fill-0, white)"/>
<path id="Fill 14" fill-rule="evenodd" clip-rule="evenodd" d="M31.3123 38.7456C31.3123 39.3323 30.8368 39.809 30.2488 39.809C29.6622 39.809 29.1867 39.3323 29.1867 38.7456C29.1867 38.1589 29.6622 37.6822 30.2488 37.6822C30.8368 37.6822 31.3123 38.1589 31.3123 38.7456" fill="var(--fill-0, white)"/>
</g>
<path id="Fill 17" fill-rule="evenodd" clip-rule="evenodd" d="M44.913 44.3854H44.7801V44.7402H44.913C44.9944 44.7402 45.0526 44.7235 45.0876 44.6902C45.1228 44.657 45.1402 44.6164 45.1402 44.5684C45.1402 44.5165 45.1228 44.4733 45.0876 44.438C45.0526 44.403 44.9944 44.3854 44.913 44.3854V44.3854ZM44.3976 45.5051V44.136H44.9797C45.3418 44.136 45.5228 44.2745 45.5228 44.5517C45.5228 44.6403 45.4932 44.7124 45.4341 44.7677C45.375 44.8233 45.2992 44.8621 45.2069 44.8843C45.3104 44.9285 45.3934 45.0054 45.4563 45.1144C45.5191 45.2234 45.5633 45.3537 45.5894 45.5051H45.1902C45.1607 45.3462 45.1154 45.2215 45.0545 45.131C44.9934 45.0404 44.9056 44.9951 44.7912 44.9951H44.7801V45.5051H44.3976ZM44.9409 45.8654C45.2364 45.8654 45.4712 45.774 45.6449 45.591C45.8185 45.4082 45.9055 45.1578 45.9055 44.8399C45.9055 44.5184 45.8185 44.2662 45.6449 44.0834C45.4712 43.9004 45.2364 43.809 44.9409 43.809C44.6341 43.809 44.3968 43.9004 44.2287 44.0834C44.0604 44.2662 43.9762 44.5184 43.9762 44.8399C43.9762 45.1578 44.0604 45.4082 44.2287 45.591C44.3968 45.774 44.6341 45.8654 44.9409 45.8654V45.8654ZM44.9407 46.2035C44.6709 46.2035 44.4342 46.1462 44.2313 46.0317C44.0278 45.9171 43.8688 45.7582 43.7543 45.555C43.6398 45.3518 43.5825 45.1136 43.5825 44.84C43.5825 44.5665 43.6398 44.3281 43.7543 44.1249C43.8688 43.9217 44.0278 43.7628 44.2313 43.6481C44.4342 43.5336 44.6709 43.4763 44.9407 43.4763C45.2103 43.4763 45.4469 43.5336 45.6502 43.6481C45.8533 43.7628 46.0123 43.9217 46.1269 44.1249C46.2414 44.3281 46.2987 44.5665 46.2987 44.84C46.2987 45.1136 46.2414 45.3518 46.1269 45.555C46.0123 45.7582 45.8533 45.9171 45.6502 46.0317C45.4469 46.1462 45.2103 46.2035 44.9407 46.2035V46.2035Z" fill="var(--fill-0, #DB0007)"/>
</g>
</svg>
