<svg preserveAspectRatio="xMidYMid meet" width="60.709" height="24.3" overflow="visible" style="display: block;" viewBox="0 0 60.709 24.3" fill="none" xmlns="http://www.w3.org/2000/svg">
<g id="Group">
<path id="Vector" d="M12.6059 0V8.3647C11.4983 7.72941 10.127 7.30588 8.54462 7.30588C2.95369 7.30588 0 11.7 0 15.8294C0 19.9588 2.95369 24.3 8.54462 24.3C12.7642 24.3 14.3465 22.2882 17.2475 20.9118V0H12.6059ZM4.64152 15.7765C4.64152 13.7118 6.01288 11.6471 8.6501 11.6471C11.2346 11.6471 12.6059 13.6059 12.6587 15.6706V15.8824C12.6059 17.9471 11.2346 19.9059 8.6501 19.9059C6.06562 19.9059 4.64152 17.8412 4.64152 15.7765Z" fill="var(--fill-0, black)"/>
<g id="Group_2">
<path id="Vector_2" d="M22.7856 20.8059H22.9966C25.1592 20.8059 25.2119 20.8059 25.2119 19.6941V16.8353C24.4207 17.0471 23.4713 17.3118 22.5219 17.5235L21.9417 14.8765C23.1021 14.6647 24.2097 14.3471 25.2119 14.0824V10.3765H22.4692V7.83529H25.2119V4.55294H27.7436V7.83529H30.1171V10.3765H27.7436V13.2353C28.904 12.8118 29.7479 12.4412 30.1171 12.2294V14.8235C29.6952 15.0353 28.904 15.4588 27.7436 15.8824V19.8529C27.7436 22.7647 27.5854 23.4 23.7878 23.5059L22.7856 20.8059ZM38.6618 23.6647C38.4508 22.7647 38.1871 21.9176 37.9761 21.1765C35.7081 21.9706 33.0181 22.5529 28.4821 23.2412L27.9019 20.4882C28.3766 20.4353 29.0095 20.3294 29.326 20.2765C30.9083 15.4059 32.2269 10.1647 33.1763 4.65882L35.9718 5.13529C34.9696 10.3765 33.7565 15.0882 32.3852 19.8C34.4422 19.4294 35.919 19.0588 37.1322 18.6353C36.6575 17.1529 36.0245 15.7765 35.3916 14.2941L37.6596 13.0765C38.9782 16.0412 39.9804 18.3706 41.1935 22.3941L38.6618 23.6647Z" fill="var(--fill-0, black)"/>
<path id="Vector_3" d="M52.7446 21.0706C51.9534 21.6529 50.1073 22.8706 48.1558 22.8706C45.3603 22.8706 43.1978 20.5941 43.1978 14.2941C43.1978 11.1706 43.6725 8.15294 44.0417 6.14118H46.9427C46.3625 9 46.046 11.8059 46.046 14.6118C46.046 17.9471 46.8899 20.0118 48.525 20.0118C50.0018 20.0118 51.6369 18.6882 52.7446 17.7882V21.0706ZM57.808 20.9647C57.808 15.5118 57.1751 11.3294 54.1159 6.61765H57.3333C59.4431 10.0059 60.709 14.1353 60.709 20.9647H57.808Z" fill="var(--fill-0, black)"/>
</g>
</g>
</svg>
