<svg preserveAspectRatio="xMidYMid meet" width="26.8997" height="27" overflow="visible" style="display: block;" viewBox="0 0 26.8997 27" fill="none" xmlns="http://www.w3.org/2000/svg">
<g id="Group">
<path id="Vector" d="M26.8997 21.1235C26.8997 24.3529 24.2625 27 21.0451 27H5.85465C2.63723 27 0 24.3529 0 21.1235V5.87647C0 2.64706 2.63723 0 5.85465 0H21.0451C24.2625 0 26.8997 2.64706 26.8997 5.87647V21.1235Z" fill="var(--fill-0, #CC0033)"/>
<g id="Group_2">
<path id="Vector_2" d="M7.12057 6.24695V9.15872C6.75135 8.94695 6.27665 8.78813 5.69646 8.78813C3.74491 8.78813 2.69002 10.3234 2.69002 11.7528C2.69002 13.1822 3.74491 14.7175 5.69646 14.7175C7.17331 14.7175 7.70076 14.0293 8.75565 13.5528V6.24695H7.12057ZM4.37785 11.7528C4.37785 11.0117 4.85255 10.3234 5.74921 10.3234C6.64586 10.3234 7.12057 11.0117 7.12057 11.6999V11.7528C7.12057 12.4411 6.64586 13.1293 5.74921 13.1293C4.85255 13.1822 4.37785 12.4411 4.37785 11.7528Z" fill="var(--fill-0, white)"/>
<g id="Group_3">
<path id="Vector_3" d="M10.6545 13.4999H10.7599C11.4984 13.4999 11.5511 13.4999 11.5511 13.1293V12.1234C11.2874 12.2293 10.9182 12.2822 10.6017 12.3352L10.3907 11.4352C10.8127 11.3822 11.1819 11.2764 11.5511 11.1705V9.8999H10.549V8.9999H11.4984V7.83519H12.395V8.9999H13.2389V9.8999H12.395V10.9058C12.817 10.747 13.0807 10.6411 13.2389 10.5881V11.4881C13.0807 11.5411 12.817 11.6999 12.395 11.8587V13.2352C12.395 14.2411 12.3423 14.5058 11.0237 14.5058L10.6545 13.4999ZM16.1926 14.4528C16.0871 14.1352 16.0344 13.8705 15.9289 13.6058C15.1905 13.8705 14.2411 14.0822 12.6587 14.294L12.4478 13.3411C12.606 13.3411 12.817 13.2881 12.9752 13.2881C13.5554 11.594 13.9774 9.79401 14.2938 7.83519L15.296 7.99401C14.9268 9.79401 14.5048 11.4881 14.0301 13.1293C14.7158 13.0234 15.2432 12.8646 15.6652 12.7058C15.507 12.1764 15.296 11.6999 15.085 11.1705L15.8762 10.747C16.3509 11.7528 16.6673 12.5999 17.0893 13.9764L16.1926 14.4528Z" fill="var(--fill-0, white)"/>
<path id="Vector_4" d="M21.0979 13.5528C20.8342 13.7646 20.1485 14.1881 19.5155 14.1881C18.5661 14.1881 17.775 13.394 17.775 11.1705C17.775 10.1117 17.9332 8.9999 18.0387 8.31166H19.0408C18.8299 9.31754 18.7244 10.2705 18.7244 11.2764C18.7244 12.4411 19.0408 13.1822 19.5683 13.1822C20.0957 13.1822 20.6759 12.7058 21.0451 12.3881V13.5528H21.0979ZM22.8912 13.5528C22.8912 11.647 22.6802 10.1646 21.6253 8.52343H22.6802C23.4186 9.68813 23.8406 11.1705 23.8406 13.5528H22.8912Z" fill="var(--fill-0, white)"/>
</g>
</g>
<g id="Group_4">
<path id="Vector_5" d="M9.2303 19.6942C9.2303 20.7001 8.38638 21.5472 7.38424 21.5472C6.38209 21.5472 5.53818 20.7001 5.53818 19.6942C5.53818 18.6883 6.38209 17.8413 7.38424 17.8413C8.38638 17.8413 9.2303 18.6883 9.2303 19.6942Z" fill="var(--fill-0, #EEE562)"/>
<path id="Vector_6" d="M15.2959 19.6942C15.2959 20.7001 14.452 21.5472 13.4499 21.5472C12.395 21.5472 11.6038 20.7001 11.6038 19.6942C11.6038 18.6883 12.4477 17.8413 13.4499 17.8413C14.5048 17.8413 15.2959 18.6883 15.2959 19.6942Z" fill="var(--fill-0, #EEE562)"/>
<path id="Vector_7" d="M21.4143 19.6942C21.4143 20.7001 20.5704 21.5472 19.5682 21.5472C18.5133 21.5472 17.7222 20.7001 17.7222 19.6942C17.7222 18.6883 18.5661 17.8413 19.5682 17.8413C20.5704 17.8413 21.4143 18.6883 21.4143 19.6942Z" fill="var(--fill-0, #EEE562)"/>
</g>
</g>
</svg>
