<svg preserveAspectRatio="xMidYMid meet" width="99.7308" height="29.221" overflow="visible" style="display: block;" viewBox="0 0 99.7308 29.221" fill="none" xmlns="http://www.w3.org/2000/svg">
<g id="LinePay">
<path id="Fill 1" fill-rule="evenodd" clip-rule="evenodd" d="M16.1797 6.34298H13.7528C13.3804 6.34298 13.0785 6.64649 13.0785 7.02064V22.2027C13.0785 22.5771 13.3804 22.8807 13.7528 22.8807H16.1797C16.5519 22.8807 16.8538 22.5771 16.8538 22.2027V7.02064C16.8538 6.64649 16.5519 6.34298 16.1797 6.34298" fill="var(--fill-0, black)"/>
<g id="Group 5">
<mask id="mask0_0_8636" style="mask-type:luminance" maskUnits="userSpaceOnUse" x="0" y="6" width="11" height="17">
<path id="Clip 4" fill-rule="evenodd" clip-rule="evenodd" d="M0 6.34376H10.9888V22.8814H0V6.34376Z" fill="var(--fill-0, white)"/>
</mask>
<g mask="url(#mask0_0_8636)">
<path id="Fill 3" fill-rule="evenodd" clip-rule="evenodd" d="M10.3148 19.0857H3.77527V7.02142C3.77527 6.64727 3.47363 6.34376 3.10122 6.34376H0.67405C0.301892 6.34376 -8.10741e-06 6.64727 -8.10741e-06 7.02142V22.2035C-8.10741e-06 22.5779 0.301892 22.8814 0.67405 22.8814H10.3148C10.6869 22.8814 10.9888 22.5779 10.9888 22.2035V19.7634C10.9888 19.3892 10.6869 19.0857 10.3148 19.0857" fill="var(--fill-0, black)"/>
</g>
</g>
<path id="Fill 6" fill-rule="evenodd" clip-rule="evenodd" d="M46.3828 10.1392C46.7549 10.1392 47.0568 9.8357 47.0568 9.46156V7.02142C47.0568 6.64702 46.7549 6.34376 46.3828 6.34376H36.7421C36.3699 6.34376 36.068 6.64702 36.068 7.02142V22.2035C36.068 22.5777 36.3699 22.8814 36.7421 22.8814H46.3828C46.7549 22.8814 47.0568 22.5777 47.0568 22.2035V19.7634C47.0568 19.3892 46.7549 19.0857 46.3828 19.0857H39.8433V16.5102H46.3828C46.7549 16.5102 47.0568 16.2067 47.0568 15.8325V13.3924C47.0568 13.0183 46.7549 12.7147 46.3828 12.7147H39.8433V10.1392H46.3828Z" fill="var(--fill-0, black)"/>
<path id="Fill 8" fill-rule="evenodd" clip-rule="evenodd" d="M32.8318 6.34346H30.4048C30.0324 6.34346 29.7305 6.64698 29.7305 7.02112V15.8059L23.3792 6.67615C23.1992 6.41717 22.9306 6.34346 22.6326 6.34346C22.5949 6.33707 22.5564 6.34346 22.517 6.34346H20.0901C19.7177 6.34346 19.416 6.64698 19.416 7.02112V22.2032C19.416 22.5776 19.7177 22.8811 20.0901 22.8811H22.517C22.8894 22.8811 23.1913 22.5776 23.1913 22.2032V13.0282L29.8133 22.5469C29.8369 22.5812 29.8634 22.6122 29.8909 22.6413C30.0049 22.7762 30.1704 22.8678 30.3572 22.8811H30.4789H32.8318C33.2042 22.8811 33.5058 22.5776 33.5058 22.2032V7.02112C33.5058 6.64698 33.2042 6.34346 32.8318 6.34346" fill="var(--fill-0, black)"/>
<g id="Group 12">
<mask id="mask1_0_8636" style="mask-type:luminance" maskUnits="userSpaceOnUse" x="53" y="0" width="47" height="30">
<path id="Clip 11" fill-rule="evenodd" clip-rule="evenodd" d="M53.3941 0H99.7308V29.221H53.3941V0Z" fill="var(--fill-0, white)"/>
</mask>
<g mask="url(#mask1_0_8636)">
<path id="Fill 10" fill-rule="evenodd" clip-rule="evenodd" d="M98.0459 29.221H55.0793C54.1486 29.221 53.3941 28.4625 53.3941 27.5269V1.69389C53.3941 0.758273 54.1486 0 55.0793 0H98.0459C98.9765 0 99.731 0.758273 99.731 1.69389V27.5269C99.731 28.4625 98.9765 29.221 98.0459 29.221" fill="var(--fill-0, #08BF5B)"/>
</g>
</g>
<path id="Fill 13" fill-rule="evenodd" clip-rule="evenodd" d="M67.0289 11.395C67.0289 10.4105 66.3378 9.65781 65.397 9.65781H63.3812V13.1321H65.397C66.3378 13.1321 67.0289 12.3795 67.0289 11.395M70.1004 11.3948C70.1004 13.9619 68.0462 16.0271 65.3968 16.0271H63.381V19.8187C63.381 20.0698 63.1786 20.2732 62.9289 20.2732H60.7616C60.5117 20.2732 60.3093 20.0698 60.3093 19.8187V7.21725C60.3093 6.96594 60.5117 6.76249 60.7616 6.76249H65.3968C68.0462 6.76249 70.1004 8.82772 70.1004 11.3948" fill="var(--fill-0, white)"/>
<path id="Fill 15" fill-rule="evenodd" clip-rule="evenodd" d="M78.6267 15.4485C78.6267 14.001 77.6668 13.0938 76.3421 13.0938C75.0174 13.0938 74.0575 14.001 74.0575 15.4485C74.0575 16.8962 75.0174 17.8031 76.3421 17.8031C77.6668 17.8031 78.6267 16.8962 78.6267 15.4485M81.5065 10.8626V20.0346C81.5065 20.1669 81.4001 20.2739 81.2685 20.2739H78.8648C78.7334 20.2739 78.6268 20.1669 78.6268 20.0346V19.3669C77.9932 20.1001 77.0523 20.5441 75.7663 20.5441C73.2511 20.5441 71.1778 18.3246 71.1778 15.4486C71.1778 12.5726 73.2511 10.3531 75.7663 10.3531C77.0523 10.3531 77.9932 10.7971 78.6268 11.5306V10.8626C78.6268 10.7303 78.7334 10.6233 78.8648 10.6233H81.2685C81.4001 10.6233 81.5065 10.7303 81.5065 10.8626" fill="var(--fill-0, white)"/>
<path id="Fill 17" fill-rule="evenodd" clip-rule="evenodd" d="M91.0896 10.875L88.8796 16.4718L86.5945 10.8706C86.5334 10.7209 86.3883 10.6234 86.2274 10.6234H83.7766C83.6073 10.6234 83.492 10.7959 83.5564 10.9536L87.3691 20.2977L85.9795 23.8166C85.9176 23.9737 86.0327 24.1444 86.2007 24.1444H88.6528C88.8152 24.1444 88.9616 24.0443 89.0214 23.8926L94.1315 10.9507C94.1934 10.7939 94.0783 10.6234 93.9103 10.6234H91.4585C91.2958 10.6234 91.1497 10.723 91.0896 10.875" fill="var(--fill-0, white)"/>
</g>
</svg>
