<svg preserveAspectRatio="xMidYMid meet" width="26.8245" height="26.7613" overflow="visible" style="display: block;" viewBox="0 0 26.8245 26.7613" fill="none" xmlns="http://www.w3.org/2000/svg">
<path id="Vector" d="M5.23866 26.7613H3.97633C1.76726 26.7613 0 24.9941 0 22.785V8.39448C3.53452 8.01578 6.87968 8.01578 9.78304 8.33136L5.23866 26.7613ZM21.3333 14.3274C21.9645 11.7396 17.8619 9.40434 11.2347 8.52071L8.83629 18.43C14.3905 18.7456 20.6391 17.0414 21.3333 14.3274ZM22.8481 0H3.97633C1.83037 0 0.126233 1.64103 0 3.72387C15.7791 3.28205 23.4793 8.77318 22.2801 14.2643C21.2071 19.1874 16.1578 21.0809 8.01578 21.712L6.81657 26.7613H22.8481C25.0572 26.7613 26.8245 24.9941 26.8245 22.785V3.97633C26.7613 1.76726 24.9941 0 22.8481 0Z" fill="var(--fill-0, #FF0033)"/>
</svg>
