<svg preserveAspectRatio="xMidYMid meet" width="74.3511" height="19.8817" overflow="visible" style="display: block;" viewBox="0 0 74.3511 19.8817" fill="none" xmlns="http://www.w3.org/2000/svg">
<path id="Vector" d="M43.8028 0H41.5937H39.0059C38.5641 0 38.2485 0.378698 38.2485 0.757397V15.716H41.5937V10.3511C41.5937 10.3511 42.5404 10.3511 43.8028 10.3511C47.0217 10.3511 49.9882 8.33136 49.9882 4.92308C49.925 1.57791 47.0217 0 43.8028 0ZM41.5937 8.77317V1.64103C41.5937 1.64103 42.6035 1.64103 43.8028 1.64103C45.4438 1.64103 47.2742 2.90335 47.2742 5.04931C47.2742 7.19527 45.4438 8.83629 43.8028 8.83629C42.1617 8.77317 41.5937 8.77317 41.5937 8.77317ZM55.6686 3.97633C53.144 3.97633 51.8185 4.60749 51.8185 4.60749L52.1341 5.55424C52.1341 5.55424 53.0809 5.11243 54.9744 5.11243C57.0572 5.11243 57.499 6.12229 57.499 7.51085V8.14201C57.0572 8.01578 56.0473 7.82643 54.9744 7.82643C53.3964 7.82643 50.8087 8.77317 50.8087 11.9921C50.8087 15.0217 53.0809 16.0316 54.7219 16.0316C56.0473 16.0316 56.8678 15.5897 57.5621 15.211V15.8422H60.9073V7.44773C60.7811 4.85996 58.1933 3.97633 55.6686 3.97633ZM55.7949 14.5168C54.3432 14.5168 53.3333 13.4438 53.3333 11.8659C53.3333 10.288 54.7219 9.34122 55.9842 9.34122C56.6154 9.34122 57.2465 9.53057 57.499 9.71992V13.7594C57.0572 14.1381 56.5523 14.5168 55.7949 14.5168ZM68.6075 17.1677C67.5976 19.4398 65.8935 19.6923 65.1992 19.8185C64.4418 19.8817 63.5582 19.8817 63.5582 19.8817V18.0513C65.073 18.0513 65.8304 18.1775 66.714 16.4103L67.282 14.8955L61.7909 3.97633H65.3254L68.9231 11.2347L72.0789 3.97633H74.3511C74.3511 3.97633 69.6173 14.9586 68.6075 17.1677ZM5.55424 0H3.34517H0.757397C0.315582 0 0 0.378698 0 0.757397V15.716H3.34517V10.3511C3.34517 10.3511 4.29191 10.3511 5.55424 10.3511C8.77317 10.3511 11.7396 8.33136 11.7396 4.92308C11.7396 1.57791 8.77317 0 5.55424 0ZM3.34517 8.77317V1.64103C3.34517 1.64103 4.35503 1.64103 5.55424 1.64103C7.19527 1.64103 9.02564 2.90335 9.02564 5.04931C9.02564 7.19527 7.19527 8.83629 5.55424 8.83629C3.97633 8.77317 3.34517 8.77317 3.34517 8.77317ZM17.4201 3.97633C14.8955 3.97633 13.57 4.60749 13.57 4.60749L13.8856 5.55424C13.8856 5.55424 14.8323 5.11243 16.7258 5.11243C18.8087 5.11243 19.2505 6.12229 19.2505 7.51085V8.14201C18.8087 8.01578 17.7988 7.82643 16.7258 7.82643C15.1479 7.82643 12.5602 8.77317 12.5602 11.9921C12.5602 15.0217 14.8323 16.0316 16.4734 16.0316C17.7988 16.0316 18.6193 15.5897 19.3136 15.211V15.8422H22.6588V7.44773C22.5325 4.85996 19.9448 3.97633 17.4201 3.97633ZM17.5463 14.5168C16.0947 14.5168 15.0848 13.4438 15.0848 11.8659C15.0848 10.288 16.4734 9.34122 17.7357 9.34122C18.3669 9.34122 18.998 9.53057 19.2505 9.71992V13.7594C18.8087 14.1381 18.3037 14.5168 17.5463 14.5168ZM30.359 17.1677C29.3491 19.4398 27.645 19.6923 26.9507 19.8185C26.1933 19.8817 25.3097 19.8817 25.3097 19.8817V18.0513C26.8245 18.0513 27.5819 18.1775 28.4655 16.4103L29.0335 14.8955L23.5424 3.97633H27.0769L30.6746 11.2347L33.8304 3.97633H36.1026C36.1657 3.97633 31.3688 14.9586 30.359 17.1677Z" fill="var(--fill-0, #3F3A39)"/>
</svg>
