<svg preserveAspectRatio="xMidYMid meet" width="34.2247" height="21.3043" overflow="visible" style="display: block;" viewBox="0 0 34.2247 21.3043" fill="none" xmlns="http://www.w3.org/2000/svg">
<g id="visa 1" clip-path="url(#clip0_0_6665)">
<path id="Rectangle 134" d="M34.2247 0H0V21.3043H34.2247V0Z" fill="var(--fill-0, white)"/>
<path id="Rectangle 135" d="M34.2247 18.2352H0V21.3045H34.2247V18.2352Z" fill="var(--fill-0, #F7B600)"/>
<path id="Rectangle 136" d="M34.2247 0H0V3.06925H34.2247V0Z" fill="var(--fill-0, #1A1F71)"/>
<path id="Path 755" d="M13.6988 6.44867L10.163 14.8774H7.85003L6.11586 8.13953C6.09911 7.98414 6.04349 7.83549 5.95412 7.70728C5.86476 7.57906 5.74454 7.47543 5.60455 7.40595C4.92188 7.07021 4.19576 6.83119 3.44713 6.6958L3.49187 6.45151H7.20593C7.4487 6.45127 7.68341 6.53861 7.86696 6.6975C8.0505 6.85639 8.17057 7.07617 8.2051 7.31647L9.11764 12.1874L11.3858 6.45009L13.6988 6.44867ZM22.7503 12.1163C22.7503 9.89216 19.681 9.75937 19.7038 8.77866C19.7038 8.46761 19.9928 8.15586 20.6376 8.06851C21.3774 8.00317 22.1214 8.13345 22.795 8.44631L23.1728 6.6674C22.5196 6.42178 21.8276 6.29503 21.1297 6.29315C18.9723 6.29315 17.4604 7.44927 17.437 9.07266C17.415 10.2955 18.5264 10.9631 19.3494 11.3629C20.1725 11.7627 20.4856 12.0524 20.4856 12.4082C20.4856 12.9643 19.7961 13.2313 19.1733 13.2313C18.3904 13.2559 17.6151 13.0716 16.9271 12.6972L16.5266 14.5436C17.2957 14.8555 18.1205 15.0068 18.9503 14.9882C21.2405 15.0102 22.7311 13.8761 22.7531 12.1192L22.7503 12.1163ZM28.4442 14.8774H30.4681L28.7098 6.44867H26.8421C26.6426 6.44947 26.4476 6.50894 26.2816 6.61967C26.1156 6.73041 25.9857 6.88752 25.9083 7.07147L22.6168 14.8774H24.907L25.3516 13.6098H28.1538L28.4442 14.8774ZM25.9978 11.8948L27.1539 8.73676L27.8207 11.8948H25.9978ZM16.8121 6.44867L15.0111 14.8774H12.8317L14.6333 6.44938L16.8121 6.44867Z" fill="var(--fill-0, #1A1F71)"/>
</g>
<defs>
<clipPath id="clip0_0_6665">
<rect width="34.2247" height="21.3043" fill="white"/>
</clipPath>
</defs>
</svg>
