<svg preserveAspectRatio="xMidYMid meet" width="43.9115" height="25.0052" overflow="visible" style="display: block;" viewBox="0 0 43.9115 25.0052" fill="none" xmlns="http://www.w3.org/2000/svg">
<g id="Group">
<path id="Vector" d="M43.9115 4.11671L38.016 22.0066C37.4061 23.8871 35.9831 25.0052 34.2551 25.0052C33.1369 25.0052 32.1205 24.5986 31.3581 23.8362L32.4762 22.1591C32.9845 22.6165 33.4927 22.8198 34.1534 22.8198C35.0682 22.8198 35.5256 22.4132 35.9322 21.1934L36.288 20.1769L30.5958 4.11671H33.0353L37.4061 16.8734L41.5228 4.11671H43.9115Z" fill="var(--fill-0, #BF0000)"/>
<path id="Vector_2" d="M25.92 18.7539C24.6494 20.2786 23.1755 20.9901 21.2951 20.9901C16.9751 20.9901 14.0273 17.4833 14.0273 12.3501C14.0273 7.21694 17.0259 3.76094 21.3459 3.76094C23.2772 3.76094 24.6494 4.32 25.9708 5.69224L26.3266 4.16753H28.4104V20.5835H26.3266L25.92 18.7539ZM16.5685 12.3501C16.5685 16.0602 18.6014 18.8047 21.3459 18.8047C24.0904 18.8047 26.1233 16.1111 26.1233 12.4009C26.1233 8.64 24.0904 5.94635 21.3459 5.94635C18.6014 5.89553 16.5685 8.64 16.5685 12.3501Z" fill="var(--fill-0, #BF0000)"/>
<path id="Vector_3" d="M6.81035 0C10.4696 0 13.1125 2.54118 13.1125 6.14965C13.1125 9.75812 10.5205 12.3501 6.81035 12.3501H2.33789V20.5327H0V0H6.81035ZM6.65789 10.1647C8.94495 10.1647 10.6221 8.48753 10.6221 6.14965C10.6221 3.81177 8.99577 2.18541 6.65789 2.18541H2.33789V10.1647H6.65789Z" fill="var(--fill-0, #BF0000)"/>
</g>
</svg>
